<svg width="320" height="320" viewBox="0 0 320 320" fill="none" xmlns="http://www.w3.org/2000/svg">
<rect width="320" height="320" fill="#1C1C1C"/>
<rect x="245.757" y="73.7927" width="3.24325" height="196.207" fill="#C99A2E"/>
<rect x="245.757" y="266.741" width="3.25926" height="150.162" transform="rotate(90 245.757 266.741)" fill="#C99A2E"/>
<rect x="69" y="50" width="3.24325" height="52.1481" fill="#C99A2E"/>
<rect x="120.892" y="50" width="3.25926" height="48.973" transform="rotate(90 120.892 50)" fill="#C99A2E"/>
<rect x="202.297" y="78.0297" width="2.60741" height="112.216" transform="rotate(90 202.297 78.0297)" fill="#62605D"/>
<rect x="202.297" y="95.3036" width="2.60741" height="112.216" transform="rotate(90 202.297 95.3036)" fill="#62605D"/>
<rect x="202.297" y="112.578" width="2.60741" height="112.216" transform="rotate(90 202.297 112.578)" fill="#62605D"/>
<rect x="163.054" y="129.852" width="2.60741" height="72.973" transform="rotate(90 163.054 129.852)" fill="#62605D"/>
<rect x="221.757" y="148.755" width="2.60741" height="152.433" transform="rotate(90 221.757 148.755)" fill="#B38A2C"/>
<rect x="202.297" y="168.637" width="2.60741" height="112.216" transform="rotate(90 202.297 168.637)" fill="#424140"/>
<rect x="202.297" y="185.911" width="2.60741" height="112.216" transform="rotate(90 202.297 185.911)" fill="#424140"/>
<rect x="154.622" y="203.185" width="2.60741" height="64.5406" transform="rotate(90 154.622 203.185)" fill="#424140"/>
<rect x="202.297" y="220.459" width="2.60741" height="112.216" transform="rotate(90 202.297 220.459)" fill="#424140"/>
<rect x="245.757" y="73.7927" width="3.24325" height="196.207" fill="#C99A2E"/>
<rect x="245.757" y="266.741" width="3.25926" height="150.162" transform="rotate(90 245.757 266.741)" fill="#C99A2E"/>
<rect x="69" y="50" width="3.24325" height="52.1481" fill="#C99A2E"/>
<rect x="120.892" y="50" width="3.25926" height="48.973" transform="rotate(90 120.892 50)" fill="#C99A2E"/>
<rect x="202.297" y="78.0297" width="2.60741" height="112.216" transform="rotate(90 202.297 78.0297)" fill="#62605D"/>
<rect x="202.297" y="95.3036" width="2.60741" height="112.216" transform="rotate(90 202.297 95.3036)" fill="#62605D"/>
<rect x="202.297" y="112.578" width="2.60741" height="112.216" transform="rotate(90 202.297 112.578)" fill="#62605D"/>
<rect x="163.054" y="129.852" width="2.60741" height="72.973" transform="rotate(90 163.054 129.852)" fill="#62605D"/>
<rect x="221.757" y="148.755" width="2.60741" height="152.433" transform="rotate(90 221.757 148.755)" fill="#B38A2C"/>
<rect x="202.297" y="168.637" width="2.60741" height="112.216" transform="rotate(90 202.297 168.637)" fill="#424140"/>
<rect x="202.297" y="185.911" width="2.60741" height="112.216" transform="rotate(90 202.297 185.911)" fill="#424140"/>
<rect x="154.622" y="203.185" width="2.60741" height="64.5406" transform="rotate(90 154.622 203.185)" fill="#424140"/>
<rect x="202.297" y="220.459" width="2.60741" height="112.216" transform="rotate(90 202.297 220.459)" fill="#424140"/>
</svg>
